<svg width="20" height="18" viewBox="0 0 20 18" fill="none" xmlns="http://www.w3.org/2000/svg">
<path fill-rule="evenodd" clip-rule="evenodd" d="M18.25 0.75H1.75C0.921573 0.75 0.25 1.42157 0.25 2.25V15.75C0.25 16.5784 0.921573 17.25 1.75 17.25H18.25C19.0784 17.25 19.75 16.5784 19.75 15.75V2.25C19.75 1.42157 19.0784 0.75 18.25 0.75ZM12.625 5.25C13.2463 5.25 13.75 5.75368 13.75 6.375C13.75 6.99632 13.2463 7.5 12.625 7.5C12.0037 7.5 11.5 6.99632 11.5 6.375C11.5 5.75368 12.0037 5.25 12.625 5.25ZM1.75 15.75V13.125L6.625 8.25L14.125 15.75H1.75ZM18.25 15.75H16.2466L12.8716 12.375L14.7466 10.5L18.25 14.0044V15.75Z" fill="white"/>
</svg>
