<svg width="20" height="18" viewBox="0 0 20 18" fill="none" xmlns="http://www.w3.org/2000/svg">
<path fill-rule="evenodd" clip-rule="evenodd" d="M18.25 0.75H1.75C0.921573 0.75 0.25 1.42157 0.25 2.25V15.75C0.25 16.5784 0.921573 17.25 1.75 17.25H18.25C19.0784 17.25 19.75 16.5784 19.75 15.75V2.25C19.75 1.42157 19.0784 0.75 18.25 0.75ZM18.25 2.25V11.8828L15.8059 9.43969C15.5246 9.15831 15.143 9.00023 14.7452 9.00023C14.3473 9.00023 13.9657 9.15831 13.6844 9.43969L11.8094 11.3147L7.68437 7.18969C7.09867 6.60436 6.14946 6.60436 5.56375 7.18969L1.75 11.0034V2.25H18.25ZM1.75 13.125L6.625 8.25L14.125 15.75H1.75V13.125ZM18.25 15.75H16.2466L12.8716 12.375L14.7466 10.5L18.25 14.0044V15.75ZM11.5 6.375C11.5 5.75368 12.0037 5.25 12.625 5.25C13.2463 5.25 13.75 5.75368 13.75 6.375C13.75 6.99632 13.2463 7.5 12.625 7.5C12.0037 7.5 11.5 6.99632 11.5 6.375Z" fill="white"/>
</svg>
